<svg xmlns="http://www.w3.org/2000/svg" viewBox="0 0 228.76 101.33"><defs><style>.cls-1{fill:#2e2e30;}</style></defs><title>Asset 1</title><g id="Layer_2" data-name="Layer 2"><g id="Layer_1-2" data-name="Layer 1"><path class="cls-1" d="M10.85,37.54c3.66,0,7.81-1,9.81-4.37a10.11,10.11,0,0,0,1.21-5.65V0H14.56V24.86c0,2.77.11,6-3.6,6s-3.65-3.6-3.65-6.37V0H0V28.08C0,34.61,4.82,37.54,10.85,37.54Z"/><path class="cls-1" d="M43.8,18.88a22.27,22.27,0,0,0-.38-4.21L52.5,36.94h6.86V0H51.94V17.33a24.94,24.94,0,0,0,.56,5L43.42,0H36.49V36.94H43.8Z"/><polygon class="cls-1" points="76.81 36.94 84.12 36.94 84.12 6.76 89.82 6.76 89.82 0 71.1 0 71.1 6.76 76.81 6.76 76.81 36.94"/><rect class="cls-1" x="101.56" width="7.31" height="36.94"/><polygon class="cls-1" points="126.31 36.94 133.62 36.94 133.62 6.76 139.33 6.76 139.33 0 120.61 0 120.61 6.76 126.31 6.76 126.31 36.94"/><polygon class="cls-1" points="166.02 30.01 158.38 30.01 158.38 0 151.07 0 151.07 36.94 166.02 36.94 166.02 30.01"/><polygon class="cls-1" points="192.93 30.13 185.46 30.13 185.46 21.82 191.94 21.82 191.94 14.84 185.46 14.84 185.46 6.87 192.82 6.87 192.82 0 178.15 0 178.15 36.94 192.93 36.94 192.93 30.13"/><path class="cls-1" d="M228.76,18.66c0-6.59-1.88-14.4-8.47-17.39A16.45,16.45,0,0,0,212.81,0h-6.14V36.94h7.14C225,36.94,228.76,28.63,228.76,18.66ZM214,6.48a5.35,5.35,0,0,1,3.71,1.27c2.93,2.44,3.76,7.2,3.76,10.86,0,4.59-1.44,11.63-7.25,11.57H214Z"/><polygon class="cls-1" points="212.54 62.54 216.08 62.54 216.08 93.05 223.17 93.05 223.17 56.11 212.54 56.11 212.54 62.54"/><rect class="cls-1" x="142.49" y="95.56" width="55.44" height="5.77"/></g></g></svg>