<svg xmlns="http://www.w3.org/2000/svg" xmlns:xlink="http://www.w3.org/1999/xlink" viewBox="0 0 301.15 138.82"><defs><style>.cls-1{fill:none;}.cls-2{clip-path:url(#clip-path);}.cls-3{fill:#2e2e30;}</style><clipPath id="clip-path" transform="translate(0 0)"><rect class="cls-1" width="301.15" height="138.82"/></clipPath></defs><title>Asset 2</title><g id="Layer_2" data-name="Layer 2"><g id="Layer_1-2" data-name="Layer 1"><g id="Artwork_4" data-name="Artwork 4"><g class="cls-2"><g class="cls-2"><path class="cls-3" d="M33.39,115.49c11.24,0,24-3.07,30.14-13.46,3.41-5.79,3.75-10.9,3.75-17.37V0H44.8V76.48c0,8.52.34,18.57-11.07,18.57C22.14,95.05,22.48,84,22.48,75.46V0H0V86.36c0,20.1,14.82,29.13,33.39,29.13" transform="translate(0 0)"/><rect class="cls-3" x="82.95" y="121.79" width="174.57" height="17.03"/><polygon class="cls-3" points="279.35 113.61 301.15 113.61 301.15 0 268.44 0 268.44 19.76 279.35 19.76 279.35 113.61"/></g></g></g></g></g></svg>