<svg id="Layer_1" data-name="Layer 1" xmlns="http://www.w3.org/2000/svg" xmlns:xlink="http://www.w3.org/1999/xlink" viewBox="0 0 50 50"><defs><style>.cls-1{fill:none;}.cls-2{clip-path:url(#clip-path);}.cls-3{fill:#f5da31;}.cls-4{fill:#2e2e30;}</style><clipPath id="clip-path"><rect class="cls-1" x="0.04" y="0.03" width="50" height="50"/></clipPath></defs><g id="Artwork_6" data-name="Artwork 6"><g class="cls-2"><rect class="cls-3" x="0.04" y="0.03" width="50" height="50"/><g class="cls-2"><path class="cls-4" d="M13.68,21.65a3.24,3.24,0,0,0,2.92-1.3A2.92,2.92,0,0,0,17,18.67V10.46H14.79v7.41c0,.83,0,1.8-1.07,1.8s-1.09-1.07-1.09-1.89V10.46H10.45v8.37c0,2,1.43,2.82,3.23,2.82"/><rect class="cls-4" x="18.49" y="22.27" width="16.92" height="1.65"/><polygon class="cls-4" points="37.52 21.47 39.63 21.47 39.63 10.46 36.46 10.46 36.46 12.38 37.52 12.38 37.52 21.47"/><path class="cls-4" d="M4.53,45.54h41v-41h-41Zm39.6-1.43H6V5.94H44.13Z"/></g></g></g></svg>